<?xml version="1.0" encoding="UTF-8"?>
<svg version="1.1" xmlns="http://www.w3.org/2000/svg" width="673" height="673">
<path d="M0 0 C1.04647705 -0.00701431 2.0929541 -0.01402863 3.17114258 -0.02125549 C6.5295039 -0.03866399 9.88768896 -0.04510772 13.24609375 -0.046875 C14.96625198 -0.04788712 14.96625198 -0.04788712 16.72116089 -0.04891968 C33.25316672 -0.03344095 49.36368342 0.33875718 65.68359375 3.203125 C67.2459375 3.46053467 67.2459375 3.46053467 68.83984375 3.72314453 C131.32444224 14.12794598 190.5239696 41.75946327 237.68359375 84.203125 C238.23208984 84.69522461 238.78058594 85.18732422 239.34570312 85.69433594 C250.11312325 95.39511245 260.59965439 105.27498002 269.62109375 116.6484375 C271.47959391 118.95044339 273.41545165 121.10453117 275.43359375 123.265625 C298.18245031 148.67754215 314.99432191 180.81051601 327.68359375 212.203125 C328.00521484 212.98896973 328.32683594 213.77481445 328.65820312 214.58447266 C350.29413053 268.03997561 355.72162518 328.32465012 347.68359375 385.203125 C347.54969238 386.18522949 347.41579102 387.16733398 347.27783203 388.17919922 C338.5493355 450.23087456 310.23944486 510.43931784 268.68359375 557.203125 C268.04228516 557.93055908 267.40097656 558.65799316 266.74023438 559.4074707 C260.96545276 565.901538 254.95060731 572.1193283 248.80859375 578.265625 C247.89207031 579.19439453 246.97554687 580.12316406 246.03125 581.08007812 C239.89505864 587.22921504 233.49928229 592.8222845 226.68359375 598.203125 C225.93190918 598.80874268 225.18022461 599.41436035 224.40576172 600.03833008 C213.92555325 608.47399959 203.19489234 616.23674042 191.68359375 623.203125 C190.89678223 623.67959473 190.1099707 624.15606445 189.29931641 624.64697266 C113.5988112 670.04334359 21.53504893 685.40191846 -64.5234375 664.484375 C-87.21881314 658.75774945 -109.1842979 651.29069018 -130.31640625 641.203125 C-131.11353027 640.82575195 -131.9106543 640.44837891 -132.73193359 640.05957031 C-177.5573735 618.70079485 -218.63848745 586.32450769 -249.31640625 547.203125 C-250.09113281 546.23503906 -250.86585938 545.26695312 -251.6640625 544.26953125 C-262.82072901 530.10710672 -272.50761524 514.92049468 -281.31640625 499.203125 C-281.72600586 498.47577148 -282.13560547 497.74841797 -282.55761719 496.99902344 C-300.72786052 464.44577719 -312.28716778 428.55673299 -318.56640625 391.890625 C-318.71762939 391.00995361 -318.86885254 390.12928223 -319.0246582 389.22192383 C-321.80145473 371.91672721 -322.69381022 354.70959358 -322.62890625 337.203125 C-322.62708344 336.17675934 -322.62526062 335.15039368 -322.62338257 334.09292603 C-322.57432648 317.62845489 -321.9352802 301.48868849 -319.31640625 285.203125 C-319.1447998 284.12450195 -318.97319336 283.04587891 -318.79638672 281.93457031 C-308.71595757 220.73132134 -281.94992949 162.07388982 -240.61132812 115.66113281 C-239.47464453 114.38129223 -238.35502795 113.08633592 -237.23828125 111.7890625 C-226.02579672 98.94326329 -213.82497769 86.61842935 -200.31640625 76.203125 C-199.22746643 75.30571406 -198.14173814 74.40439735 -197.05859375 73.5 C-168.47467021 49.79299175 -135.11611561 31.87208699 -100.31640625 19.203125 C-99.46820313 18.88891602 -98.62 18.57470703 -97.74609375 18.25097656 C-66.87476565 6.91616683 -32.93743809 0.14830409 0 0 Z " fill="#EE7F1A" transform="translate(322.31640625,-0.203125)"/>
<path d="M0 0 C0.81592621 0.00021149 1.63185242 0.00042297 2.47250366 0.00064087 C15.70162012 0.03480957 28.28698041 0.96007008 41.125 4.375 C41.8483252 4.56223633 42.57165039 4.74947266 43.31689453 4.94238281 C81.43390473 15.08706169 114.52909118 40.78588112 134.49121094 74.69580078 C155.71450546 112.11014171 160.48652063 153.45041402 149.67578125 195.11328125 C145.84293927 208.78754586 139.70506086 222.52631811 131.49609375 234.125 C131.03380371 234.78661133 130.57151367 235.44822266 130.09521484 236.12988281 C129.17835902 237.42931843 128.24318315 238.71607934 127.28759766 239.98730469 C124.90304094 243.3487224 124.11505387 244.82035675 124.19140625 249.078125 C126.54205859 257.37917344 132.21595657 261.52602202 139.34375 265.9296875 C144.65713559 268.69085698 149.11135877 269.5159084 155.125 270.375 C155.125 281.595 155.125 292.815 155.125 304.375 C132.94077387 304.42022991 110.75658536 304.45703744 88.57232475 304.47862434 C78.27069314 304.48891604 67.96909231 304.50293591 57.66748047 304.52587891 C48.6836225 304.54587748 39.69978683 304.55873173 30.71590722 304.56317699 C25.96354987 304.56577345 21.21125633 304.57183195 16.45891953 304.58646011 C11.97577479 304.60014644 7.49271946 304.60420056 3.00955582 304.60121536 C1.37384809 304.60176062 -0.26186298 304.6056717 -1.89755249 304.61341095 C-39.97878249 304.7845859 -74.77905385 289.38789541 -102.6484375 263.59765625 C-109.3942338 256.86369468 -114.50213087 248.68895837 -119.83203125 240.828125 C-121.93775295 237.72728556 -124.08551495 234.66113421 -126.26171875 231.609375 C-132.71688436 222.49803439 -138.12368171 213.9568946 -141.875 203.375 C-142.54595703 201.57675781 -142.54595703 201.57675781 -143.23046875 199.7421875 C-148.19164213 185.80434558 -150.38354868 172.20044778 -150.21118164 157.46557617 C-150.18746539 155.30935319 -150.19067286 153.15436894 -150.19726562 150.99804688 C-150.17311297 138.16779286 -148.96680516 125.60646393 -145.3125 113.25 C-145.0556543 112.37311523 -144.79880859 111.49623047 -144.53417969 110.59277344 C-132.64668027 71.56562623 -108.06063949 38.29896308 -72.01171875 18.53491211 C-58.52466132 11.38709903 -44.83120763 5.62333581 -29.875 2.375 C-29.02373535 2.18953613 -28.1724707 2.00407227 -27.29541016 1.81298828 C-18.21443274 0.06418641 -9.21301722 -0.02202482 0 0 Z " fill="#EF7F1A" transform="translate(333.875,161.625)"/>
<path d="M0 0 C2.54681464 0.01828557 5.09326304 0.02050852 7.64013672 0.02026367 C20.39108123 0.04647393 33.0887442 0.24697103 45.61279297 2.89331055 C46.45229492 3.06846191 47.29179687 3.24361328 48.15673828 3.42407227 C88.00033474 12.00633859 125.45428792 29.88215712 155.05029297 58.20581055 C156.02724121 59.13393555 156.02724121 59.13393555 157.02392578 60.08081055 C167.80286278 70.38399419 177.51558322 80.96805967 186.05029297 93.20581055 C186.52515137 93.88434082 187.00000977 94.56287109 187.48925781 95.26196289 C193.32000769 103.69755655 198.42756211 112.46467434 203.23779297 121.51831055 C203.72006348 122.42033203 204.20233398 123.32235352 204.69921875 124.25170898 C205.13862793 125.09894531 205.57803711 125.94618164 206.03076172 126.8190918 C206.42158936 127.569729 206.81241699 128.32036621 207.21508789 129.09375 C208.05029297 131.20581055 208.05029297 131.20581055 208.05029297 135.20581055 C209.09781738 135.19533691 210.1453418 135.18486328 211.22460938 135.17407227 C215.17948879 135.13736871 219.13435378 135.11473052 223.08935547 135.09594727 C224.7882746 135.08600269 226.48717716 135.07244223 228.18603516 135.05493164 C256.28210355 134.77297582 256.28210355 134.77297582 267.36279297 140.76831055 C268.0322998 141.11909668 268.70180664 141.46988281 269.39160156 141.83129883 C278.86124295 147.02640148 285.33889325 154.53085168 290.05029297 164.20581055 C290.37716095 164.78248474 290.70402893 165.35915894 291.040802 165.95330811 C295.4861489 174.97956585 294.64816168 184.81924229 294.61669922 194.6315918 C294.62194318 196.62640166 294.62822248 198.62120903 294.63548279 200.61601257 C294.64585703 204.78595694 294.64136987 208.95555945 294.62670898 213.12548828 C294.60954932 218.43787545 294.63299773 223.74917808 294.66819859 229.06144428 C294.69028934 233.17877712 294.68870259 237.29585528 294.68043327 241.41322899 C294.67961969 243.37021255 294.68636827 245.32721595 294.7012043 247.28414345 C294.81132439 264.43984141 291.86111513 277.89819935 279.80029297 290.89331055 C265.41981717 304.5169192 248.09924614 305.36782304 229.42138672 305.3034668 C227.81999252 305.30159857 226.21859774 305.30017658 224.61720276 305.29917908 C220.43006779 305.29538573 216.24296826 305.28558311 212.05584717 305.2744751 C207.7720996 305.26419207 203.48834623 305.25966678 199.20458984 305.25463867 C190.81980807 305.24395758 182.43505495 305.22692 174.05029297 305.20581055 C174.72380195 301.56917312 175.71192301 298.2570669 177.01757812 294.79199219 C181.01410595 284.13998648 183.77828741 273.34339092 186.05029297 262.20581055 C186.24929199 261.25158203 186.44829102 260.29735352 186.65332031 259.31420898 C196.64565503 209.7044358 187.83430121 159.82302778 159.96826172 117.4597168 C156.32684588 112.06937723 152.37442701 107.07145677 148.05029297 102.20581055 C147.38126953 101.42850586 146.71224609 100.65120117 146.02294922 99.8503418 C143.7474059 97.25274765 141.41328965 94.72422106 139.05029297 92.20581055 C138.53257324 91.64877441 138.01485352 91.09173828 137.48144531 90.51782227 C109.02977597 60.13833381 70.43686316 42.23878383 29.4921875 36.54980469 C27.52722413 36.27299671 25.56857419 35.95156107 23.61279297 35.6159668 C-21.86352493 30.38020651 -70.11071676 43.47365711 -106.14306641 71.75463867 C-111.17665881 75.79783776 -116.08597298 79.95926757 -120.94970703 84.20581055 C-122.0016046 85.07220346 -123.05498985 85.93679335 -124.10986328 86.79956055 C-127.83677514 89.95743909 -130.80725741 93.48235135 -133.94970703 97.20581055 C-134.69091797 98.0359668 -135.43212891 98.86612305 -136.19580078 99.72143555 C-153.85226571 119.94868176 -166.82801568 145.37459108 -173.94970703 171.20581055 C-174.145 171.90577148 -174.34029297 172.60573242 -174.54150391 173.3269043 C-183.66897942 206.82504677 -182.25499771 243.42591405 -170.94970703 276.20581055 C-170.5888501 277.3033667 -170.5888501 277.3033667 -170.22070312 278.4230957 C-154.89983761 324.87832458 -121.62861856 362.70426187 -78.35986328 385.1628418 C-57.37092298 395.69114784 -34.88527925 403.80422714 -11.20214844 404.44458008 C7.61706061 405.0132614 27.58053772 407.07202931 41.98779297 420.39331055 C52.94520046 432.41177053 57.0221572 445.68226359 56.45263672 461.63549805 C55.53415578 475.24961733 49.26013249 486.66317993 39.22216797 495.7722168 C26.08816223 506.20721874 12.52183334 509.57176178 -3.94970703 508.20581055 C-18.12730767 505.49754621 -30.61354343 496.22059842 -38.76220703 484.45581055 C-44.93602366 473.27752653 -45.48701375 462.28680106 -45.19970703 449.89331055 C-45.17958283 448.36273533 -45.16134267 446.83213414 -45.14501953 445.30151367 C-45.10155792 441.60239368 -45.03286894 437.90427661 -44.94970703 434.20581055 C-46.84849609 434.06272461 -46.84849609 434.06272461 -48.78564453 433.91674805 C-54.32917121 433.29166837 -59.33344017 431.69114094 -64.57470703 429.83081055 C-65.56817139 429.47994385 -66.56163574 429.12907715 -67.58520508 428.76757812 C-122.03879193 408.96822138 -166.52044719 369.73622672 -192.94970703 318.20581055 C-196.94970703 309.52009626 -196.94970703 309.52009626 -196.94970703 305.20581055 C-198.10792969 305.22675781 -199.26615234 305.24770508 -200.45947266 305.26928711 C-204.83548173 305.34273623 -209.21143876 305.38798389 -213.58789062 305.42553711 C-215.46721617 305.44541737 -217.34648186 305.47253141 -219.22558594 305.50756836 C-238.34534493 305.85464354 -254.72319319 304.07579162 -269.26220703 290.33081055 C-279.07880646 279.89189091 -284.07594546 268.33577378 -284.12670898 254.02587891 C-284.13656578 252.81011673 -284.13656578 252.81011673 -284.1466217 251.5697937 C-284.16628326 248.89507947 -284.17800374 246.22042132 -284.18798828 243.5456543 C-284.19206381 242.62744967 -284.19613934 241.70924503 -284.20033836 240.76321602 C-284.22117256 235.899438 -284.23548356 231.03568794 -284.24487305 226.171875 C-284.2559087 221.17444698 -284.29028333 216.17746772 -284.33004475 211.18019772 C-284.35632664 207.31516249 -284.36457529 203.45023214 -284.36815453 199.58511543 C-284.37299364 197.74451238 -284.38453026 195.90391316 -284.40319252 194.06339836 C-284.57529424 175.95962125 -280.92710764 162.49334026 -268.26220703 148.89331055 C-253.74791171 135.12221709 -234.86698445 134.76722441 -216.01220703 134.51831055 C-214.24981351 134.48503947 -212.48744271 134.45054129 -210.72509766 134.41479492 C-206.46676258 134.33103454 -202.20846896 134.26371154 -197.94970703 134.20581055 C-197.51762939 133.17480225 -197.08555176 132.14379395 -196.64038086 131.08154297 C-193.15008765 122.86113662 -189.4628008 115.05950981 -184.63720703 107.51831055 C-184.07598145 106.62821289 -183.51475586 105.73811523 -182.93652344 104.82104492 C-178.32573702 97.60005783 -173.39618881 90.8187691 -167.94970703 84.20581055 C-167.15951172 83.21323242 -166.36931641 82.2206543 -165.55517578 81.19799805 C-153.49986364 66.27910736 -139.62350387 52.30357934 -123.94970703 41.20581055 C-123.07765625 40.58319336 -123.07765625 40.58319336 -122.18798828 39.94799805 C-94.75145002 20.54602088 -64.07797839 7.74347936 -30.94970703 2.20581055 C-29.44754639 1.93546997 -29.44754639 1.93546997 -27.91503906 1.65966797 C-18.57431064 0.12283581 -9.44703555 -0.06993095 0 0 Z " fill="#FDFDFC" transform="translate(330.94970703125,93.794189453125)"/>
<path d="M0 0 C0.81592621 0.00021149 1.63185242 0.00042297 2.47250366 0.00064087 C15.70162012 0.03480957 28.28698041 0.96007008 41.125 4.375 C41.8483252 4.56223633 42.57165039 4.74947266 43.31689453 4.94238281 C81.43390473 15.08706169 114.52909118 40.78588112 134.49121094 74.69580078 C155.71450546 112.11014171 160.48652063 153.45041402 149.67578125 195.11328125 C145.84293927 208.78754586 139.70506086 222.52631811 131.49609375 234.125 C131.03380371 234.78661133 130.57151367 235.44822266 130.09521484 236.12988281 C129.17835902 237.42931843 128.24318315 238.71607934 127.28759766 239.98730469 C124.90304094 243.3487224 124.11505387 244.82035675 124.19140625 249.078125 C126.54205859 257.37917344 132.21595657 261.52602202 139.34375 265.9296875 C144.65713559 268.69085698 149.11135877 269.5159084 155.125 270.375 C155.125 281.595 155.125 292.815 155.125 304.375 C132.94077387 304.42022991 110.75658536 304.45703744 88.57232475 304.47862434 C78.27069314 304.48891604 67.96909231 304.50293591 57.66748047 304.52587891 C48.6836225 304.54587748 39.69978683 304.55873173 30.71590722 304.56317699 C25.96354987 304.56577345 21.21125633 304.57183195 16.45891953 304.58646011 C11.97577479 304.60014644 7.49271946 304.60420056 3.00955582 304.60121536 C1.37384809 304.60176062 -0.26186298 304.6056717 -1.89755249 304.61341095 C-39.97878249 304.7845859 -74.77905385 289.38789541 -102.6484375 263.59765625 C-109.3942338 256.86369468 -114.50213087 248.68895837 -119.83203125 240.828125 C-121.93775295 237.72728556 -124.08551495 234.66113421 -126.26171875 231.609375 C-132.71688436 222.49803439 -138.12368171 213.9568946 -141.875 203.375 C-142.54595703 201.57675781 -142.54595703 201.57675781 -143.23046875 199.7421875 C-148.19164213 185.80434558 -150.38354868 172.20044778 -150.21118164 157.46557617 C-150.18746539 155.30935319 -150.19067286 153.15436894 -150.19726562 150.99804688 C-150.17311297 138.16779286 -148.96680516 125.60646393 -145.3125 113.25 C-145.0556543 112.37311523 -144.79880859 111.49623047 -144.53417969 110.59277344 C-132.64668027 71.56562623 -108.06063949 38.29896308 -72.01171875 18.53491211 C-58.52466132 11.38709903 -44.83120763 5.62333581 -29.875 2.375 C-29.02373535 2.18953613 -28.1724707 2.00407227 -27.29541016 1.81298828 C-18.21443274 0.06418641 -9.21301722 -0.02202482 0 0 Z M-79.875 67.375 C-80.69355469 68.12007812 -81.51210937 68.86515625 -82.35546875 69.6328125 C-93.88057844 80.4610551 -101.40760136 94.0951425 -107.875 108.375 C-108.28492188 109.27089844 -108.69484375 110.16679687 -109.1171875 111.08984375 C-120.8043428 139.76414339 -117.39222761 172.37708595 -106.1875 200.5 C-92.56647239 230.92029501 -67.22056225 252.10039055 -36.875 264.375 C-34.4941217 265.11262602 -32.09701675 265.79961079 -29.6875 266.4375 C-28.49769531 266.75847656 -27.30789063 267.07945312 -26.08203125 267.41015625 C-24.68150428 267.73959235 -23.27900389 268.06071191 -21.875 268.375 C-21.15070297 268.54820267 -20.42640594 268.72140533 -19.68016052 268.89985657 C-8.56363329 271.16050212 2.75852475 270.62403899 14.046875 270.5703125 C16.3614286 270.56657676 18.6759838 270.56373244 20.99053955 270.56173706 C27.04687966 270.55414478 33.10312202 270.53453461 39.15942383 270.5123291 C45.35366494 270.49177524 51.54792203 270.48271504 57.7421875 270.47265625 C69.86983433 270.45128417 81.997409 270.41720206 94.125 270.375 C93.48827095 266.29824365 92.62803796 262.72100889 91.125 258.875 C89.62079878 255.02601453 88.69421601 251.47019298 88.125 247.375 C87.88523437 245.90353516 87.88523437 245.90353516 87.640625 244.40234375 C87.18650913 239.1199077 87.26351036 235.66802193 90.26171875 231.16796875 C92.13640538 228.96193424 94.12225131 226.86588581 96.1015625 224.75390625 C113.84435684 205.63635397 122.0152009 175.17947095 121.40625 149.62890625 C119.48213429 115.83662408 106.10519227 86.7007692 81.21875 63.6875 C70.91708029 54.79553246 59.43863549 48.09324991 47.125 42.375 C46.03960937 41.86839844 44.95421875 41.36179687 43.8359375 40.83984375 C39.63873859 39.18305471 35.52970246 38.17380505 31.125 37.25 C30.35671875 37.08113281 29.5884375 36.91226563 28.796875 36.73828125 C19.93996373 34.82530892 11.49282124 34.19267743 2.4375 34.1875 C0.77557617 34.16913086 0.77557617 34.16913086 -0.91992188 34.15039062 C-30.95906659 34.09772117 -58.51327065 46.62360578 -79.875 67.375 Z " fill="#FDFDFC" transform="translate(333.875,161.625)"/>
<path d="M0 0 C3.81235104 -0.08809201 7.62443553 -0.1407549 11.4375 -0.1875 C13.04141602 -0.22520508 13.04141602 -0.22520508 14.67773438 -0.26367188 C22.61009903 -0.33644586 29.4783218 0.24390402 35.875 5.25 C40.01532107 10.60806256 41.37461932 15.26352647 41.38818359 21.9699707 C41.39344055 22.62792633 41.39869751 23.28588196 41.40411377 23.96377563 C41.41721238 26.1180261 41.4086095 28.27152451 41.3984375 30.42578125 C41.40046189 31.93881877 41.40337636 33.45185533 41.40713501 34.96488953 C41.41154526 38.12960132 41.40517224 41.29405821 41.39111328 44.45874023 C41.37406603 48.49000895 41.38384213 52.52067636 41.40183067 56.5519228 C41.41274161 59.67573971 41.4091882 62.79941733 41.4014473 65.92323875 C41.39946312 67.40820578 41.40184102 68.89318595 41.40888596 70.37813759 C41.47853816 89.19143254 41.47853816 89.19143254 35.875 96.9375 C28.36063506 102.32824006 20.40912484 102.39840619 11.4375 102.1875 C10.33341797 102.17396484 9.22933594 102.16042969 8.09179688 102.14648438 C5.39400728 102.11144815 2.69727364 102.06232591 0 102 C0.20496094 100.82824219 0.40992188 99.65648437 0.62109375 98.44921875 C0.8934537 96.86201768 1.16557625 95.27477586 1.4375 93.6875 C1.57220703 92.92115234 1.70691406 92.15480469 1.84570312 91.36523438 C3.47565416 81.78430267 4.15673697 72.24371596 4.203125 62.53125 C4.20882507 61.57085815 4.21452515 60.61046631 4.22039795 59.62097168 C4.22977353 57.60084101 4.23635196 55.58069557 4.24023438 53.56054688 C4.24988873 50.53487099 4.28096368 47.5098908 4.3125 44.484375 C4.37540674 32.73666056 3.53142515 21.60699495 1.35974121 10.06274414 C0.77724877 6.72275188 0.39173389 3.36720411 0 0 Z " fill="#EF811E" transform="translate(551,263)"/>
<path d="M0 0 C1.16080078 0.00902344 2.32160156 0.01804687 3.51757812 0.02734375 C6.36610108 0.05078838 9.21419078 0.08360478 12.0625 0.125 C11.76601562 1.1975 11.46953125 2.27 11.1640625 3.375 C7.24819065 19.14898819 6.77295842 35.81367693 6.8125 52 C6.81556152 53.31097656 6.81862305 54.62195313 6.82177734 55.97265625 C6.93587372 67.60159643 7.4838326 78.90137966 10.125 90.25 C10.49350082 91.87701401 10.85950037 93.50459714 11.22265625 95.1328125 C11.38386963 95.83035645 11.54508301 96.52790039 11.71118164 97.24658203 C12.0625 99.125 12.0625 99.125 12.0625 102.125 C8.10442285 102.24261144 4.14680379 102.31271882 0.1875 102.375 C-0.92109375 102.40851563 -2.0296875 102.44203125 -3.171875 102.4765625 C-11.50947393 102.5746519 -19.10770668 101.66755882 -25.4375 95.8125 C-28.44349753 90.42675443 -29.1887618 85.14530905 -29.2121582 79.04736328 C-29.21726913 78.37804779 -29.22238007 77.7087323 -29.22764587 77.01913452 C-29.24143576 74.82776707 -29.24059308 72.63671793 -29.23828125 70.4453125 C-29.24217426 68.90745937 -29.24651017 67.3696073 -29.25126648 65.83175659 C-29.25870609 62.61582955 -29.25845406 59.40001232 -29.25317383 56.18408203 C-29.24738484 52.0832447 -29.26430712 47.98285985 -29.2875185 43.88209724 C-29.30232261 40.70772721 -29.30311847 37.53346446 -29.30000877 34.35906601 C-29.30051872 32.84814433 -29.30569455 31.33721611 -29.31582069 29.82632828 C-29.4240538 11.41919247 -29.4240538 11.41919247 -24.66255188 5.55471802 C-17.65980158 -0.9360953 -8.90032365 -0.1315568 0 0 Z " fill="#EF801C" transform="translate(109.9375,262.875)"/>
<path d="M0 0 C11.22 0 22.44 0 34 0 C34 11.22 34 22.44 34 34 C22.78 34 11.56 34 0 34 C0 22.78 0 11.56 0 0 Z " fill="#FDFCFC" transform="translate(387,297)"/>
<path d="M0 0 C11.22 0 22.44 0 34 0 C34 11.22 34 22.44 34 34 C22.78 34 11.56 34 0 34 C0 22.78 0 11.56 0 0 Z " fill="#FDFBFA" transform="translate(319,297)"/>
<path d="M0 0 C11.22 0 22.44 0 34 0 C34 11.22 34 22.44 34 34 C22.78 34 11.56 34 0 34 C0 22.78 0 11.56 0 0 Z " fill="#FDFBFA" transform="translate(252,297)"/>
<path d="M0 0 C3.16634636 -0.11760715 6.33212074 -0.18771024 9.5 -0.25 C10.386875 -0.28351562 11.27375 -0.31703125 12.1875 -0.3515625 C18.30882798 -0.44158203 22.92800811 0.43750299 28 4 C31.65116862 7.55461918 33.90054333 10.53301419 34.25 15.6875 C34.16125091 20.58644968 33.04819676 24.77523455 29.640625 28.4765625 C25.57532608 32.059893 22.0364639 33.68669786 16.75 34.5 C11.36508864 33.78201182 7.85903535 31.8143361 4 28 C-1.41256426 19.66407216 -0.40122574 9.50682106 0 0 Z " fill="#EF811E" transform="translate(319,534)"/>
</svg>
